<mxfile host="65bd71144e">
    <diagram id="HIP3nbAZw_EuaXWnEj3U" name="Page-1">
        <mxGraphModel dx="1086" dy="694" grid="1" gridSize="10" guides="1" tooltips="1" connect="1" arrows="1" fold="1" page="1" pageScale="1" pageWidth="850" pageHeight="1100" math="0" shadow="0">
            <root>
                <mxCell id="0"/>
                <mxCell id="1" parent="0"/>
                <mxCell id="7" value="http://ics2o.mths.ca" style="swimlane;whiteSpace=wrap;html=1;" parent="1" vertex="1">
                    <mxGeometry x="40" y="40" width="760" height="490" as="geometry"/>
                </mxCell>
                <mxCell id="8" value="&lt;font style=&quot;font-size: 20px;&quot;&gt;Volume of a sphere in JS&lt;/font&gt;" style="rounded=0;whiteSpace=wrap;html=1;" vertex="1" parent="7">
                    <mxGeometry y="20" width="750" height="60" as="geometry"/>
                </mxCell>
                <mxCell id="9" value="" style="shape=image;verticalLabelPosition=bottom;labelBackgroundColor=default;verticalAlign=top;aspect=fixed;imageAspect=0;image=data:image/png,iVBORw0KGgoAAAANSUhEUgAAAu4AAAFcCAMAAACgKcsbAAAAGXRFWHRTb2Z0d2FyZQBBZG9iZSBJbWFnZVJlYWR5ccllPAAAAwBQTFRF//Gd//3y//Kh2bWO//Kl//Op69GV//Sx//S19Vtg9ABMqmxx582sZQiWKSkpnGK6//jQ//W5//jN/94Zsn+ngjKM//a9/+Ao/+I2//rZ//fF/+RE//nV//bB/+ZS5dnr//rd/94Y/+Ai/+dY/+M8jEKW/+hg/+t0/98c/+Am4rpL/98g/98e/++Q/+Eq//vh/+Ak+/v7/+Iy/+pu/+Et/+Ev/+I0/+IwxZFg/+Q+/+M6/+x8/+RB/+RA2atL/+M4/+VIbhec/+VF/+ZO/+dV//Os/+VK/+6K/+dU//zq/+ZQ/+hd/+hb//3t//CY/+ZM/+pr/+li/+pq/+lk/+tw/+lm4r5n/+ha/+ty2bu3+fn5/+x3/+2A/+2D/+x5/+1+//fIvIFT/+6G/+po/+6I/+x29itLxpeQ/++O/++M+FRAvIRq9NXE2bik//CU//CWsnyW//GasnmB99ZGxZV2/+6E//vlvImI2ak4eCOH//CS7MMnxY5HjECK2bJ79thU//74vI2ksnNY+5ex+GOEn16S9/f3+Ntl//Sv+5dx7MY44sKDxZys+5JO9dQ4+5eYz6R5//jL9jFk7M1o9dxzz6Bgn1hm/Pz8////9R5UlUx37MhIlU+Hn1t3+4M1jESfqGuDqG+f7MpYeCSR/uvVjD+A///8++jE9dEj2a5f//znbxWPhwqH9dMs1AJd+sMj/tMvn12IjD52z51K/ue4/bg7/u/zgjB/n2GglwZ9/uOb/bQi/94X2bBt9Q9QlVKd/MLA/cOEAAAAQEBAikSu07vfv7+/roDHf39/7ujx9dEf7+/vEBAQgDWo3MrldyaiwJ3T39/fn5+fyazZ4rYv/+lok1O0r6+vUFBQz8/PcHBwj4+PpXHAYGBg/+2Ey7nVcz6Qz5s/t47NqGZf/+VMlUtu/v7+/+Iv///+9eSnxZBU/tAa9eCF/+EwtZrDxwNjvgNosFGU/sIe/sc//t5+/tIm/uCJ/uXgz6iUz6yx6wFR/KiX7M98/b5g9eGQ/KkxLancfAAAOxFJREFUeNrsnQt8VdWd75GHUGElooC2CBQlWB8ooohaVCJIURAEeVlACEh9IBiDaEISrKkiVWulloRBLaCDUz117jSdaZw7UWveT5KQEN7cGwLYMu3ce+fO3Hp72zuz/v/12GuvvffJgeQczkn+P/3IOfucnBPD9/zy+//Xf+/VazuJ1GPUi34EJMKdRCLcSSTCnUQi3Ekkwp1EItxJJMKdRCLcSSTCnUQi3Ekkwp1EuJNIhDuJRLiTSIQ7iUS4R0lNFRUVtfSXSeok7sdKSw8592pLS0ttqg65ntGFOpBUUlIRyRNrq/gzuZION/k/YV9pKf1FkyLA/XBJyWGDG86U/YyKCKE8a9qB4Ehe+ZCAHVS3z/cZVSUl9BdNigD3JhfgB0tK9sUKd3ivSAJKLac96QgPM0eSgj4fhDspwuzOGTp0WpHFeaqNFe6lJZElEP4b55i4VcB/FZUS7qRO4L7PSDMOWXGEe2lJXa1zu6SJcCedO+7c0euMfHEAE86Rg6UHjzS5cK+okPdrRY/kEL9fy593DB5sOlxaatSR+/jdYwe8wcl42UMVSSVJVrflUBWvlA/bX2c6+j7xvYj3dt4Dcd93jL+483oV/MUO7pP34Y3494gld1PVwdLSI01ERo/EXTPukF8lC8MqE3d1V90vLak6VIdPO6a+QMT+0xWytLR7PK6XLRW3jd8btfJQSdIhC3enuKgVHzr+3gfEeyc1yVeuTXLVsk2lrtfib7SvDt+t9nDYopfU3XE/oBOMzDUciLrDVYfrZMoJxP1gXclBfBqPG8eqjvGvapKP8+PQO0yye0DGy3px50dKq6qq+B91tVZxccSTb/h7HxPvUStw578rqvB7wK+t5e/C7x9U3xP/KNaJdyuFfmbVsTr9GSf1LNy316k0w+k4hLgeBGZqD8oUE4R7SR0GC+Wx+xDL09xm8fj2I+4uj/2ydnY/pKi2vg5elxN6oMmFe0ndIflYlfy9cUS+yRH5fyLu14mPMn9+SVWtePFj8GdTkrfjSuoRuB+WTlcr/LiUOya2aji4pWFxP6Lct6JA3CgVQB1Qn54kF6Lul7Vxr9IlhH4nqWMylxw8csjBvUq9R53A/aD6VXBQfHRk+X1EtJpK1DdVp74n/pQDp4mOHoj7IZlmhD03aZQKqrAPEox7reJYPF3w69jmAbOr6XlZG/emikMBuG+vOKiWmZL2Kdxr9XtUIO4V5vdwWD9eKzhXweqAk2GSzOU1Us/Bnf/N18kE0IREHHI+BwfC4F6qG4oFRmfR6WvWmtHc87IBjcimimMe3OFNjxxUdbHxCcP3OGI2IsWLOo/z/7cq45uvcj6Bh0to8KBH4l4g8ketSARmDxspiQB34wZ/NKlUyqwxPS/rxb3iWGmd2RLy9jGTSjyfFHyyjTuP6up7qMP/KfWSUA5LJTn9V1KPcvcmNM19okTsPO6GqiLHvVYklrrSI0G4i1cpjQh3Q6Vu3A0RHD0Sd1i4xKqvtktwP1ah1RQ57jAgsK/Cm91d044FSfgyLtz3+eGe5HwPh9y4Ow9UEBw9E3du7AdqZS42ZgbETRv3fWFxry3xLwE9L2vjrpsrFu5HXHMDpRbuFapUdeHu6TKqlzzsMxNE6mm419aVHJMUb6915maOIRw27sfC4l7goOYalPe8rIW783FocuNeYd6Vr+50Zg6rRqQL92MO1aWl+4xvfp/TmTlcSp2ZHoo756PuYElSgbot7LRJrNFo3EtVXyUc7k5TEF7I/Raul/Xirtv17uxungTCrf5wgdF3rxWvZeNeYf4qMsMMf75800N1nrVaUk/BHU+1OKzdNalCjL4goBJ3OQp/KKkuPO6cqDoAF4ZTqtz1sOtlvWEG5wFw2MX8ugL43o7hr4kDaihAPacpSSQdG3f9eTgi8dYvWSXWdvG7oFjTU3EHC9URGVftS5PUzFeFniUQR8Nnd1y4h15kiT0zY72sT6laB+3BkmO8cHadLrjPaKaI2YHSEv6hq8P32LfdD3f4HNRBF1LPzKhPEPR/8G1oZqbn4g4nTmg41UhjUoUrVeOQFUwSdoC7PtnusNs+rZf19N3FqGLSke0H6qwJezViWVJ3WC3klh6oM+YaPbirtmZJaZNd/cq5zCTqy/Rgd7foP3Sk6sihggKroD1QVXUgogTAv7zqQFOEL+vEHf5VFfBobYX9tU38rav2VWw3oe7gu2nax7/C75xy+N84UhH4XZB6HO7xrlIaACAR7iTCnXAnEe6EO4lwJ9xJhDuJRLiTSIQ7iUS4k0iEO4lEuJNIhDuJRLiTSIQ7iXD30+mCm0ikuFdHg9uR4F5w03c3k0iJoZsKTncG9wJinZRQ+u5Np88Vd4KdlIjAnxvuN9GPjpSQwBecPe6nydpJ3Yr3XkQ7qXuq4OxwJ9pJ3Y33MLgT7aTuxnsvqlJJ3Ta/n44Y9wL6aZESXTdFjDtFGVL3izO9yNxJ3TjORIg7mTupG9p7LzJ3Us9J772oLUPqzjodCe49OMvsLedqruRqhlt7iZhulGb8cT/dEymvrCwrS2U+Si0rq6wk7rtDmulF0b26vDK5nkWg+uTKcuInwfTdCHDvMdF9VKOH9KzCwsIQy4KbIX4zy2b+aOMogiiBRLhLNR9tcDAOFebn5WS2FHPVnOL3C4v4f/Jr4H5LZk5ePv8IaDUcbSaMuhHu3b9SrW5sdfz8VF4mci2UzQ09P5v/mccfanGO12TmnXK8vrWxmlAi3BOM9aL2NoN0oVMK8pYsFmpxP1bT1l5ExBPuCZRhkpWr53tRR6T10ZoiFsr2Pt6Wr1w+mVIN4R7PtWmlzOtFeS3FHYvzXuT7kWhRJt9QSRZPuMen9kpjz2rPDuA7x7qfHWL5AU9taZcen0wtecI9/lReJnow+ZmBbt7GiqwjmYy1BT49M1/0a8qoH0+4x5caRYM9K6cmTHbJYu32sXaWFe4r0oTF1zcSWIR7/Di7iOyFmWGjep4P2vwjkBf2izILBfDk8IR7XMWY/OzwhWk2Y5l+AYd19HX5FGkI97jpxrRGBDs38vzC0VyXmuL3CwOrVRv4VpovINzPr6orI4JdUf4tjy7l1Wo2YB8B8KnUliTcz39oD5vZBeka7+vd4ge4vXPq0eo7zPANlGgI9/Nm7ZhjstrCo64wvy5AYO/XCacPi3wbdmlayeAJ9/OiZjhdIxTYWNGoI+m/yr7uSn+NL2R5gD1YvUA+uLUDiYYmCwj382XthdnhWReezqEOsbuuHH+Nj8aP/xULjb/ySnxiB8RnF5LBE+7nJbWjtecEZhidX8C/x195hmWNv0zpBpS+e00WO8Opv9JAPpD4NFhoTaUET7jHVEfBZk/VBBi7Yh1R5w5+2WU8sNxyQ5Dy2I5rLkOjl8gL4kcHG3wlgUa4xy7IwMhAKC0M7JJ1RJ27+auMvXrDLUHCR8HtAXlBvEg1owMNvowCDeEeyyBT1OILu4t1FVxuubZwB8d64sSJkyx9OXEif2AHS5uoAo4w+XAW3wLTwak0KEm4x0SNECfaw8PusC4MnHM+IVhnWBE+yyE+LPA1uOhEY2OEewyUHFCj2rAr1jXpt3Jdbosf4w+F2KsTJqHR3+Ii/vqASJMDgSaZaCPcox3bYR4sq8U/s19vso6oT5wkSUe27/YTPz7hXbYGnjZpkkN8eOBbsijAE+6xKVK9Z9z5wi5t/VYF+h1SY5Tkff7Qr1jRrZejz09A4i3gfRJNDQT4euKdcI+i9kKRmu+bY0zYta8LV3879K5J+Zgxt3MZd/lDjL2NPm8THwZ4CPANVLAS7tGlPc83tENmB9iVsUtbR1Nfw3YoyLnudCQOwGM72JrLwecl8X7Aj/abKaAGDeEeVdpzAq3dAzvmF27ee9htSPlkpeFc+g5ifxt+Iu6wiAfgIdIEGHwO8U64x5Z2ae2QY2SMcbPOTX09TyoK8uHD7zElDvHH3mZsPfq8JN4NfJDBE++EezRpty/7pa3dD3aRX+68fRsbqjGfYktSP3ko2zb5ztsl8W7gMdHwsAQGb0/Bh4h3wj1mtENDRucYiDESdunrt0N+Gb5+2zaH8+kuOdAPZAMnc5s3iUfgMcMbicYy+BbinXCPEe22tUNm17BL1ocrS0e853BNdcTvKeq3sSzMNki8CbxKNMQ74R4zjQpDu7R2L+zAukLdxPx+lEk9fwJj790zxSReAS8TjUjwAbzTSduEexcKV5dyvLSb1m7CbrAOqCvKR/pIcb+H3TZd5BoTeMzwk1wGbwf4HFpvItxjQbsMMo618wLVDfv06SfnLHxPkT5DaJqUvCuZz2DvTj2JucYGXiUaJ9DYvP8jqyfyCPeuUrKX9kvdtHtgd3w9i30oSEfGr3JJcz9y6odsKJi8Jl4BLxONE2hs3kdf+uRFf0vzYoR7V6nSOzngju3C2iHH3H67A/scDDAvMIaka8QXaZnUz5jB2AsjIdjMMYHXBo8JXrQkbd5/9qc/XfQ/6QQnwr1r1Azn6fnQfuWVENtNa4cC1QX7yJHTtrGh0xTms2bNmukWPyKxnzaUbYNgcz9aPAAPkcYweCPQuArWJy+66KI//YIxukIB4d5FLUhrBlLQ7goyaO0O7IJ1sPUMtmsaR11zPtaQAz1HfhfLmDENoryweAn8ndiVBIN/4667fHj/Z6D9e/+liNqRhHtXlanWnjIu2nmQgYaMzDFQoJqwXzXjHfbsLIPzuW451E97luVCrLGAnzx54J49A++4+9o9/HfMRJN3Qfv3gPZ/xnYktWcI9y4pUzPD0y6CjLR2jDEAu4jrixa98sLYmQboD5lyoJ858y0WwlzDiRfAQ4bnEZ5zvmfMbbizwQSb938F2p+UVxKmcpVw76waPSO/Ju0TJ+kgo6zdhF1EGIk68r3AloZ+7MwQe2vmLAn8DAAei9Z7APdrxT4eIsAr3kcX/9NninYxDkynrxLunRKsphZ6O5CKdhHbDWs/acOuUQe2969aNc+lVatWSeb5k3LZm4sgyC9yHB4SDeA+lLO8Z8+eCW7e/wNo/5n6xgppdZVw76QguNd4Vpf8aHesnWd2Dvss7euI+n4E/UGPBPSA/NwMljEXg7wGHhPNHjT2vPWiYHV4/9bPLjJpL67hvwHKCEDC/dwFHfe2yGgXJaqCfZEy9mfffGX/glWS9Jul5oPkbcn8qv0L3mS5mOMV8DLRIO63TRk+xuIdaP/sn9wbgVD3nXDvRA/SvqCMP+2TBe3c2mWOUbBzX+eBHFHXlHskmZ/34EIWWgCpRgAPGR4NHnDfM3w4tOChA694f9KmHfY1Y4y6kYR7J6KMe/cwMRVm0y5iu7Z2yOwS9gVvMfbgzQ8q1BcvvtrS4sWLNfI3M/bThzTwKtHcn8sh3gaLrHfejkuswPsNf4ft9n8tHm3ta0ZxhnA/V52we5A+tN8uaJdBBqzdgH3Vqk0sV7CuSF+NWrJE/KmgF8jnsk3z5i1wAz9jJLj7dGzBa95v+Ttst//7ddY4QSZ/6glikHA/166MHWUU7bdMcmiXHRkIMtLaJew8xGSwXwLrgvQlqEe0xH0BPRD/S5Yxj+f4/Rp45B3cfY7DO+R3pP3Jf7/uOpt3HmdSabGJcD8XtVpdGSe4e2ifo2hX1i5gv3n+s+8/v1ihjoh/2yVFvUCefzYgxqPDYyceEjziPtXF+z9gu53nd2hHuk73gO4MLTYR7uegcrsr46V9jKZdBBnH2hF2HmKUrSvQl1tS0CPxPPksno/Ar0LghcED7vdPnerwjrT/TLYjr3fzDud60GYHhPs51amFAcH9D360Y0NGWPv+efMQ9sUm6xzupT6SzHPiV/+ZMQg1EnieaIB3xH2kw/sdP8J2+x90+90dZwoZnepBuJ+9YHqgxRNlVJkaRLuydhfsyDqyvUzpuLrhIM8/FIz99GoJvEw0nHfAfYbDO9D+2X/ccesk5F1OExinrtIsAeF+9qpOtU7pcKKMQftwg3YZZLi16xyz2mQdIN+w0tKGDYp5AD6FbVoiylZp8MA74D5N8T4F2+3/cIdoRyLvVpzJZ6yBqlXC/exUadWpOso4ZSquLnlod6ydw74po88jywXqkvRHub6DgluSeUH88uXvsOd5iufAC4MXgQZwv0rxju32/63b7yq+W9Uqra0S7mdt7nn+UUbRfqeXdh5kRGpfLGNMOstA2DcI0gXnTyhJ6pF4nm6WLudPxxCvDR4CDeC+CHmf8wK229ffPmYMnN8UEGfyqBlJuHfa3DHKOMHdQzsvUh9asAC7j0A7h52nmFz21dJlx5F1CfrjLknoEXnu8Y+xFMg0SwB4YfD7FzwEuM9C3pH2J9eLcQLOu3+cIXsn3Dtv7k6UMcvUqVNN2vfPk6kdQ/vy5cuGsj4bJOuC9HG2kHkgnj9taR82VIR4YfAi0ADusMJ6/1+w3T5dt9+dOOPuzpC9E+5dYO6uKBNMu7Z2nmIY+71mXeC9cePGdUr8tkYeif89Y8sk70tkoJm3CnAfO3PWVUj7z646Ce0ZPGH7ciPOkL0T7l1m7lCnuroyEGUCaRfWjpk9JeVRh3UH9Ke5HOgF8eDxj/KPx7JljsEj74D73LEzsd3+o5EnRTvSjDOeahXsnUgk3CNVo9vcdZ2qo4wruGO/XdAug4ywdszsCvaNAvPZlgT2ivjvQPjZYPEucMd2+4+mjTw5dfoUO8742XvMe+/VrWVlRwn3RMS9wdfcsU51okxHtPPQjs6uWQe8n7GkkQfiHx+Xwr7iIV4YPAYakWcWjP0a0P6XRdNG3g/jMyrOQHdGV6tue2+I9c+slfXE6ePugDtcR6nGt071iTI+tEtrhxyjYH9aot7LkkReAb+bpa98FJo0yPsjmneg/Xt/mTED2+8nnTijqlXL3rNjPzmDeysT7omIe6t7QVWYu6pTVVfGCO6wumTRLqwdYsxGzboAvHev3lL8pkJeEL/xiXSWDhHe4v2VnwDtr8C8GOcdV1d1nFHVqtve8xlrjemPDIalCfeExH2Ue1rGMXdVpzpRxqZ9iaRdWnt6+oUbAXbFugK9d1/+jwk9Es+B/4qlPMEjvAg0GOA5769gu/2VsdCeQd51nJHVqtfe4TyPmF6VoJ4R7gmKeyVjRQHmHhRlsCfjeDvQDm32FNZnnYZdYu6WRB6J5xbfh6XwCM8NfuXK45L3R/7yV5z2r+1fAPMzs65y4kxYey+KbS+ykhHuiYp7g/vq1rotY5m7QTvMyYgOpKRdpPaNjF0oAzuyLtRPqm8/A3kJ/IUsdZzFO7bbvzZ/1aqH5o414oysVoPsPSemxWo5I9wTFfdmqwvpNXdcYNJRRpapivZlmvZ16xib7YK9n48U8Qj8bMbWrYOepOb9h0D7D+eL+UgZZ5zujDhz1cfea2JZrFZzg0g9SrgnJO7JdqHqZ+4qyoyVUcbH29et414tYdes32tLES+Af4b/PsAeDTd45P2H0ID84bz582F8xogzovkext7zY3gWH/QgmysJ94TEPdV1zh4UqqLnrswdpgegTp2mzF2VqS7aN65bN/vCz3ebsCPeW0D9ufCGSTwCz9M+L1kV7ytFu3316sXQjlxgxBnT3lV6d03OtMVuZRUu2NC6OSq4VzceLSsrO9pMuEczy0Ro7tiVEcHdRfvjgnasUZF25ev9EXSXBPIKeI772tkO79hu/2LJI6L9ruOMsPcpbnu3i9VQrDY4gOvfN1RHBffKVFkUpJ4g3KOWZdqtLiROy0yacKtO7tzcXV0ZGWVMb38aU7uwdsE6oj6g/wBTAnkNfO++L7MXecWKvD/xf7Dd/m+PQDsS7X0/nt3kZ+9icub8pJl6USZEAfdk5iiZcI9Wlsm0ClVzQdUy94cWrMIoI8vUDdiBdNOOzi4CDCI+WP+jiUeLR4NPZ+m9JO9I+0/+bcNSHJ9x4gxUqyq9m713y95jlWagRD26ORq44yvy31DVzQ0sXvfiSXTcg7MMLKgGmLuMMsuO27Qra98iWR/skSZeGPwQjjt0aJ5e9wW222FgbLlYbcLhGcvede/dp1gNxaQ3Az3I+s1RwT1VLw3DDir1hHt0zCrfk2WcQtVj7irKfFtGGZP23emDTNgF38McDR6miBe8c+BfZynYoZn9BbbbH39UtCNVnHGnd3cvEk/zcKeZ6E8owqi0uAxrl+PebKwMw23CPQpqcPdlVJbBQhWnZaZMOYltGW7uc+c+tN80d0H7OF6lCm/ndWc/N+xI+Qj5j2TeBL7vWrYTGjS9Rbt9I7Rnli0VccapVh17x8mZgDSTEwtHbNVXpexy3CvN14vXq0UlOO6j3MOQZpZRXUgfc3eCu6B9tkgyHHdFu8O6Swi9Bp7zvpalQINGtNvXYXvGFWcC7B2KVTvN1MRgbuaEw3iX415mzkEQ7lFRo+vSYQFZRpr7WGXuqivjBHeR2xkbBLQ7sCPi39ASxGvgoWQdxFL79e39EtD+xex148bBuNhxmI6U1app7ydlL9JYWXWlmaKon+QB179XG+R0Oe6NlZXl5htRmIlKGzLPN8vcClkGhsPktIyfuVu092Nsy6C1Lw4Z8vAADvvunVyvr+CU74TG2pAVK+BWAz8GxL8+hGvtgP5bGOvX92s8yfzVF71mr9soVpt87F1PzoRJM3nRbt9BBak7JlFdVW2N9UBzD8G9wdWGtLOMLlTNBVXT3EVw7/3YJykp7w/p98nOLQJtTvsIBfmKFfYtsHhxi+ce/sf/gAbkf+01blAfGJ8R0+9o7zy9Y3MGl1Y9aUb2ZlxTwNEdEzvKDAqjiPuo1rjdliSxcYfo7mpDBmcZ1XNfrOvUx15OGcrSIbinALyf9ONJZvfOT7i7Q4wZ9DDXU5esuGTrJaCLL7lk69YVK/jRpyDVoLs/3H8Ax/1vBe298FWGPvY4t/c/H/e19zlWmrFXmqIc3qFd4lyfL0q4N5aVwe+Q1DidI0hs3Js90R2GIcUaE2SZezxZ5ubXNmXsSslYenzloy8D5CkQZda+uHbtIKhSVWwfMWLFJStWCNCBdS5545KtkGq+ARkeAvyWesD9a4N4ufrM7vf566VDnElh76fs2rT6arm0KotVvzRjh/coUoI9yPLNUcG9vNx8WXjlcsI9Kr+e2wOiuzvLQKG6cCFcZ2MXQg5NyD7P9+kjmzK9YXUJqlQJO69PeXZRpDu6RHi8w/sXv+C4v9SvX+++vWF1dV2fC+HkJthWlWV8mxerGRlvLlwgilWfNGOF9/aonuMBIDZUapWpu+dWHleXg/DWiXpjC0Hu7mUI/FHCvctV5jqzQ0d3b5b5dFcuY7k8yyx5NmVXRp/XILmPwytrAO59LdoR9q2C9SsuvkKK3xTErwDgsUfz/z7juP+43739cF7smdm6Wn1tU/qfIb3j3/ybrjRjtyJdnfey6OLupzIvyfzDECzBsThDBJowDXjL9TmN3ymCxMY91XWWqje6T5ky572F9/Mss4b//EO5cMYe1qlLRVsG6lTsysBiav9Bn7xu0C6cXaH+dYU8Ar9V8v7jiy76BXtMzM/AahO393Vq9H05nKi9+PlduSH2Ke5yMHDbeyrNBIT3lqiOzUSIe2M9C68yF+6N8milpwfUQLhHtVJ1RXdcY1p/27s8T0OWeSvj07fMLqRcYdLmDsF9CNutad/qwP51LQW85P0b0G7/R/YijEhKe38G7V303qFYxZ093npl7thZC4GJ969VacY/vEe1Vo0Q94YOaJdgS9zLmS/uWBZXE+5dq3J3pWpEd2HuH8JfRO4LeBaTMT+wlBeqoufumDuPMkPYEFha0rRr1r8J+vo3FfEXy4L1pYs+u+iz/8WGDOi/xWPvuhepitVXtmXsYeyFk/cMf/u29UHhvTCaa5Gjyl2Cad16uLHXs5IROe7VqfpodXm5+b3H6bJqQuNe6ZoPM6L7tXlFb0OW2bHmw6kjp7mb7mpaxm3uPLgj7tzcgXZh7Zp1KQk8GvzfwLkcP/n7IYC7Y+84Cgz27gyKCdxnLuLh/UMI77cxNjTvWhHeLdzzY3g9gqDOzAlWViYrWVbmVLYN+v4oA/dWpg6XV7sXUgn3rpd7TVXj3g4dwTWAuzkvs3+elWUsc0fcbdoB8huVJPEI/N/gdPvfDwPc3fYuilWZZsQgAaw06Vbkh0UQazC827VqXgwbGkG4VxvRp9LVFHDd1ykmtbJaA77XFTMpzHR9YybTW6lOKGKhd29bj1131YaEk/ZUdFdZRhaqytwHPPz56xjcZZIRsCPnz+E/AnjB+1NA+0u8XOW4D9b2LibfnUkCmWbU3IxsRd7JS4o8Ht5vuOtVq1bNjOHZ0h303RH35o5xT91rPKPS/HIqVbtaDWZjhleqPz+TBpXqXb+6Q09DOkuq/lnGbLnLMtWgHVkHfYT/VcBf8RuY932JP3sE1LeD+9v2rtKMG/cZTuf9jst5rZrFis78/PpvjY7dGEHkuCPe5R3i7tAO05b6HpwPW0m4d7FcjZlLs9tDLISV6uXOIpM4j8nB3S/LgLn3HyxwF1HGoZ2TznXffffx/yLwnHdB+4+xPfMw2znYbe8B4X2WnIrUC01f3rIDuqOZVmsmsXA3TsGGsrUB16yq4RTt+NyQJJFxd/ch2/i9rDR7PiwgunuzDLbcMcrI3A60A+z3aQHwYPA/gJ0KfgztGQf3LUaxqnozRnj3X2j6OC2LZZvhPfJOZHV5eHUJ7qM6wj3Vbj6yVLmqmkojYtHtQ9aECjPHu9ZU4SxVjbsR3eUak5llBgxQ5q6ijKT9vvseuO8BIQH8jTf+GKbbf3PFxbC8KnAf7BSriPs4Gd6NMTFZq4pTmpzrEVz3KtSq2dln3Yks76Bd2Fnc7Rfxx909sNzs9OzL4pP27oF7DeBy6c/lBjUO7nI+TFeq0HX3j+5A++7dT31DRxmkHaydc37BBfivAP45PJfjN1+/ArvvgPuw4DRj16rYmpFDkXKMAC6uVMjaa2KNe3n4cZnIcLdfoLEViC9LLo9XZBIZ90o5INYWKvJOzJiNGbtSNaK7k2VG7GQPa9wdb+ekK3HeH/gj0P6Tv4b2DNq7wH2wSjPha1XVmtFjBLITySkPtcnG+4kY4d5xTnSZvz/ucYt1N8U9j1s7ZyQrW+EuJ2bGaNw7qFQB9y2iUOW48yyjzV3QDph//4Lv838R+D9iu/2vv/lNwB3sXbq7mWbkwqquVX1bM5ff6kzNFBdnZokzzPMibmhEGfdywj1OcS+Sa016QAyH3QP6kN5KVUX3YYi7ae6adqULLkDaX3ruRsQd7R1wH+YJ71ir6oUmpzXjwn2iMSRWk3eq+Kxw73SpGl7N9gwv4X7edRRBzw9lqlUmuBaqMyBm464aM8d9KtXBAvetHHdt7iLJAOcfcMGfT2G7HduRKs1w3Ec44d2/NTNvldOJnO4dEjPWmfLipV1tL6oS7udfclG1ptjBHechb/Vtuwc1ZlQbcsSLZYOgL4O4a3OXsINOY7v9B/d9hN13kWYu8eAOaQZbM2Yn0jyBLwzuNWldvqw66r9FJLv9mWwtqhLucYO7Nf470cZd9CE7xH3YN76x4mIny3z0kTT3Dz74LfwUfvsBttt/8MBz9z33nMZ9q4O7q1Z1dyL9Gu8+uNcUdf35o//y3yPSv3SwykS4JyrueMUN6EMaa6pO113hjllGmDvSvv30D7ABecED0Iy8EUcJcDCSsRG+rRk5NaNwn+vF/Ut74r0mK262GMDB3mrCPc5wz/LF3WdR1Yu72YdUEwROpaqzzAcfiJ8CttufKrjggvtEmhHhfesKgbtozfg03h3cZ9rLqh7c4XSmOMHds2RKuMcD7vkR4/5gIO7OfJjGHaO7zDJo7qex3f7H09+H5rsH92Ed4D4vQtyh7x4XuHv6kIR7HIeZMLgv98Ud3X3IkK2Iu65UL9C4/xrb7b8uKAiPe7/eovHuXVaNEPfMOMG90TMhQLgnJO5h3J2xQHfHdvuvfwu996i6e+S47y0Lr063eK2WKOGeWLh3nN0N3O3szsvUl05v/wBWmvxwjyi7z+pS3KO7quppzBDu3a4zw3EP7My89IPt29Hcrc6Mwr1LOjOxwH3UCZziaiirHNVBpeo++Y5wj99S9dz67i7crb77aa4PFO5m3125e+R993CrqvlRxn2UeZ2BskDg4XrV1nlVhHs84G7Ye6dXVXfuXOG7qqqWVb9vZhmJ+woH9y5YVc1kEV8o+pyy+95U10citTFcper+RloJ9/MtGOwIZbtw78zMjDyXyRiIVDMzHPjvC9pllnFmZp5iqcO6amYmO8SiOjMjaYcTjiT3ASdhJFvn5cmftTkzRrifF9xZUY19ybxzm4i015l8JyKR9o9u1BORW7d20USkniGIJu71xrV5y8u8gUWrwftRqLQ68YT7+cAdzsZuMS8z04l5d2OKIHDeXZ6/J8y96+bdcUk1xLKieg1gq5me7Hc6kkj4njVV+cX1hPt51AnGTrUUsVCO3/V/z/psJvPMbN+zmR64QJy9d6Poy3Th2Ux4+d8QK2o5Fc3tmVrddl7dEFQp+ER3Ub0ywv08Cs9VhQhwqsb3ctdnea7q658MuiSCc1U17V1zrqq4al7NKYxlUb1IpB3IjwalmVY/37cCDuF+PnAvErsAgMGP9uJ+VlciGIbnqrp5fw4vu2FdiUBEma64EoG+JmpaSJx2WxRFgsqtS2mIA5t7lhIZ92p5nRk407Mo03sB4LO8zgzgHtF1Zgxz79x1ZiTu8P1nZUb7skqNdiAn3BP1KmJ53B0LM/22qjmLq4hx3IOvIvaRcRUxSTuY+4hzv4qY2msyE65DkKd3Eo5qH8vVjm9mcXohR8I9sLMml5lq2uEaYjnjXbsZnOU1IhH3gGtEPue+RiRGGTB3xN3Vl4nsGpG67Z4Dp3Tk1ehlpujtEz/KvpZ7MovX3U8Jd1+VictViDUacPhQ+6ueTmSkVwAevPvzpyK+ArDc0WDEMMT9LK8ArNvur7bD95yXHZvNmWz8U1nUt+km3LtSR13Xd/95Gjhl0Zk3vvStVTu8vrvroqjB13e/wqB9xLD/y3ae5fXd1c6qb5wpwqta1hSflwsRjKrvgVkmsXGHxrvr+u6Z+VB+7Tjzxt3eIbEOd+8YIDcii2j3DrEb2bBhke7e4a5U73jjDFz+l+VnunbvOBXxRcQ6W+SXH02N3+uWEu5hO5HG3kzjP0bPZHvWvO3ZM7ujvZnkNpMR782Ee00Oga3iw+/N5Inu167ZA99j4ZmPjUXV4ij3Id39d1RDj6M9sXGv9t1579U0JD7r3W3rzV2E3VvE++y813/A4LPaeQ93EkbcA3feW+yJ7uu3vZuFn8e0V3133quOHe4NjZsJ94TaV7XBb7eaW/7Ac/EOmC5kQwdue2GkX5rx21d1bZh9Va/w3Vd12GDAfYvX3H2yDI/uL2wbiPtph3bc9saEP3j3VY3R5h2sB9t7YuPeylhawK7Zd3+Yh2yxrF+uWehJMx5753EGYrh712yxbbbeN/tie9fswQL3ez27Zos1JiPLzPp0DWzxCqV0xl3QhvTbNTstNo1B3CJeTgCXE+4JhLt7p0lzXfXyO8ZMHr5+28A94q81d9eaTXPFGU1ypclt7xBnhrBP1C7x2uAReEeXoLPDFsKS9gGfsxcV7drczUKV4/7pGtihHhPMwG3rJ4+5Y0zAtqqx3GdyczOOA8fnljKEe2CtmhWwbbbqvE//MOMd4ats6DsZb76mi1XT3pH3tWynLFfR4JXDS+bFLXB2tHZJe/+dbK0TZZ52zB0K1fmvvZnxjvgVw97fkfGh1XX3RPesmLptdat9lV/CPc5xh1q1xrvVpDMlBr2ZOVNnvPCpZp69n5vxfJ/Xlq5UzRkd3wF3h3cJ/IqtWyXzl2wFY9fWLmgXuOs6VSX31/o8n5Gi3/CdjE9fuGrG/XOwDSm77rd4o3tNjEdYcMvrBsI9cXCHMYI2n/DumhKDUzxw6P3T53flKgbZ+ykvpz/fp48TZ/oOSnl9i2i/u4EH5uWfwLq2dpwM47jrKPP07D59nk9/OcV5j9xdz346d+7MRc6SqjkfZkX3tmiOEPjpKIt86zPCPR50VO5X4wnvMs3omXcsVucu4MXqpjczXs4NOe2J91NS0tPT165d+zvZjpS8S+A18+L2iBHa2jnt/e+tZ1/xL01P353iUM5YKOWXGW9uguS+35mG9MkydnSPYrSo9m5y0NzzitUEx73ZE9590gysNGHr/aH98x68eTH0Ir+99DU04qHW9Sp2cn0yBPT6w4F6HZ/wCTzX+vKh+CvjtaXLH3nkkdXzcYDAWWM6KZZUXVnGiu7NUS1z7KxUTrgnGO4Q3rOD08ydMs24Wu9yqWnpBh7fx40b99rar9CcU9g5in/p7vT0r3gwUqdkY1vG6ELqeRkjy8g2pIN7dpQXmbynW5eHuRgB4R6v4T0nOM3gmNhJOUgwc66wd9F7V83IdetEudob8vvveDBZ+yKa9+c7A/U5PuFFeO7vGJNl6uzZeoVJ9tzhihva3NWJTMFZJi3K45DeAcgTPe/8jkTHvdI1JRaQZjz2jnFGNd83QrkK9Wr6zgvv5fn93i2Y4CHCyxQvNRgLVB7aIbVv4U+8t98g9r6rB/noyuOunrs2d1eh6ptloj0f1urZ9reBxbo4Jtw7qb12K/J6c6UJi9Upc+Q5Te6lVW7v0HxH3p8G3nunsLW4vooVKwAviTc1QMIOS6n9+vVey1J6uWjfsMyIMjD6a5o7FqpiSfUyO8vURDtYNNrR5YT34kmEe5zjDhZlpxm90uRn7zAoBpMzj4jRGZN3jjvOEwDw/ftL4gcM1v8MkKwj7LC41Lcv4i5oH/f4d4wo4zJ3owuJhapflsmJdg8c2+z11W78aVU1wXA/6pdmcG5GFKuT7/Gx98XIu4gzmneO+2PYgEfe0eH7DxDIK+GHoD/GGKC9d9/H2OfPWLQ7UWb/Q5a5G4WqvcYEWSbKK5x4IbDUEwJwcRWxaLaCCPfYphlfe5+7YJURZwzeeb2aztJ7Y8XaTzj8vf239Le1ZYuGHWpU/iWK9icM2q92mpA6uYsV1aBCtSYGTZJ60Umqd64RmbyZcE8s3O00I6+MqotVZe/Qe3eqVT/en3ns5bW9RIdGRRqsW7dsEZxvEagD6wL23ry6Zemz12naZZlqRhlfc1fzMrHMMhBn6q0WauVmwj3RcD8K1xKLzN49ccbgHacjYaDAAF4hb0iyjrDz1P45e/4ZqFJ9aBdRBhdUZXJ3m7s7yxTGZFrrRIMBe2vPO5mpG+A+yr3SpIpVt73D0uoMZe/7g3h/ejZ2JHv1Nom3JFlH2J+ZncL6rOPWjrndTfsqs071M3dXlsmO1fRK81EM7fWtJ0Zt3ky4Jx7uEEnzOrR3MTkjRglEfDd5x/4MBBro0JjAG8z37ScPSNhxbYnj/jQEGUW77EFaUUa3ZbS5W11IuAZB/WYS4R5RQznLhbtj77I5M3yKN85AuermHQ0eVlgReEG8Yr6vgboD+9PrGPv/XtplcHeizMkpquceYO4wL9NIMBLuETaUrWLV1951nHHKVcU79N858C+nbJSJBoHv1VuJY69u9hKsI+zrNjL2OK4urVzmpn2/jjJGnTrm7iBzz+l5HXDC/VyVbBerhr3D0qpZrQbyzgP84yF2oUg0DvG9emvoewnUBesI+7gLWYhbO66lQm7XtK/yRpmw5l7YA3uChHsnitUWP3tXS6s+cWa/xftxCDQ8iYsIr4iXyDt6RrMO3cdxfVgKWPvxMLTLKKOmZXzNvaXHnWZBuHdCrh0nlb1D7x0mZ3ScgclIf96Vwaewr6BkReCReETeFBx7WsH++BNfsZSVGGSwJ+Oi3dOVUdMyPuaeHyd7wxPuCYF7udWL1M0Z2YyESTEV34N5P74ynaWvfAJrVkk8Im8KUUfWsdfOv2CZCDLYgfTQbkcZ/557dg+8Agbh3gk1+Nq7Ua3eacV3xbvsR2KgWbr0sYw+ULIK4MdtROQF9gLzdSbrPLQ/sYtlLPOjfa5Ju44yWKfitIzH3BuIRML9bHqRpr3r3ruoVlWcCeL96iXS4HmiwR6NJh6Y19Dzm+LY42DsUKHy9NNHws6DzGIv7Ty4O1HGqVO95k5dSML93O3dqFZlnAnDuwg03OAh0UCE18Qr5g09LnwdWF+5YeVQtklb+2JcXVK0yzJ1jjfKjLemZcjcCfcusXefOCPju+J9wbwHIcBrg0fgj6+UxHPkkXlH/ACyjrDzGMOYqFFFkFH9dn/aZZQRdSqZO+HetfZuxxmbd6hXH1owTwWa1Rp4afErH0XkEfonJOcKdWB92dLlv2cM2o+rZZB5cN4CD+1ThusFJifKmOfskbkT7udm7y1WtarjTCDvcn5GGDxPNLtSXhMZXno8MP+owB5viGPIOs/syzexFHR2ae08yBg9mfudMjVclGnpgSdZEO6dVpl7adUbZyC+w2qTzbs0eJ7gr16Syx77trR4RH7DSksbji8TrENkX/IYe4eXqMraZWwPQ7tPlIEFVeq5E+5nK+i9t/nHGYP3ewzeof+OgWaVTvAZLGM1L1oV8YC8JTy8nLPOU8wj/OlLEHZu7RhkfGhXwV0tMFlRpo167oT7uaiVsawavzgD+xvcGsw7dmhkonmevQMZXhIvkLe0XLHOn/cOe1bA7gSZmYuCaPeNMjVZPW+zR8K9KwSTM3nFvotNKr67eZ921SIZaKTB3zx/E8u9WlStSDwy7xIeRNZX88w+lG26WsKO1o5FanjarSiTx1gqTcsQ7uegSqsZOdqJ77pc1bxPHakDvEjwCPxPM56FTIPEA/ISei08tESUp1cvvpqxnwLs8xTsGGR0T0bTbgR39wIT1qmVBCHhfo7NSFe1asR3F+84LiZ5dwxeRfj58wXxV68G5iX1ivMlwtaxPJ3/ZxaSoV3SLqx95NQwtLuiDNSp1IQk3M+9Wk0r9o/vvFzVvEM/cvpUGWi0wSPwmGmA+cUCeYDekDi0GFiff/M8Hn1M2Gf50n53GNrTqE4l3M9dyYyFsjvgfYzgfQry7hi8Cbwk3mBea7FE/WaI7BlslwW7jO3Tp9zjpd0b3LNDPW6zGMK9CwWn8fnEGQ/vrgBvAe8QL5D3SKAOIeaX7HkFO6R2l7UPn3y7k2T8y1TYNbiBTtkj3M9ZzXZ3xilXTd7vFLw7Bg89SQR+4dBcQTwgj8wr7tXtBxH1eav2L1gwlH0604QdrV0GGbm6FI72PIoyhHvndNSaJQjDuzR4nuAN4F9hTHj8fkAemXcLjq5atQBCzEOMvSJglzmGWzsEGRnbbdrt4J7JKMoQ7p2MM/XWYlMw7y6DR+B5pJkZYgvnQqoB5DnzCL2jVUg6oM6ftJCFtLMD7Pc7QUbSfmsY2mGBqZ6iDOHeKcEVUk8VW+Wqw7voR6oArw3eAT6XPTsWUg0iL6A3hQfhUR5inmW5aOwG7CrIdEw79CDZXuKPcO+cTtjx3cX7LZNgfsZt8CbwV2WwDJwtEMgr6qXkIY462PouljHNgF3mGGntYi1V92Q8tOf1vK0ECPcodSNds2I+vItAow2eJxoEnhM/cuGz72GoEchr6A3QEXXIMLlsG7AuYT8JsIO1O7EdJgcCaG9jdGUZwr2r4nuoJZh3GeC1wRvAc4ufMQM8fpFEXlM/1uEcUMcMw9h7ixTsENq1tcsgE4b2lhAFd8K9i+J7ql2uSt6vvOYymJ/BAC8NXiYaEWmUxWOq4cgvmjVLU684n8UP48PTeKU6baTj7Ai7TO06tgfQDmVqKgV3wr1LBMMERT68X3flNTrQKIOHRGMCj8QD8oJ5gb2UOsIjDP8tcBvLlcaOsOscI4MMFqmy327TXkQdd8K96wRn8uUXu3m/FHk3Aw0aPCQaHWmQ+JMLRyLyyLyGXnOOqPMIM+1dloHGrp1d5hgzyFxzpQ/tcHYqnYxNuHdtuWrxPlrMzyjehcFbwHPiT37Ihk5HkxfMK+wF5TOQdJ5guK0PZR9OUcaOsFvWLoOMP+1UphLuseJdGTy2aCzgp7zA2AtTUfcL6C0B6RBh4HlTfGDX1q5ov5RoJ9yjLdh1K8fL+/W2wSvgNfH3CNeeM2eqIw7+/cbdOTyuT9/Ght5zj2Bdwy5yzEQnyECROtr9XaQx2qiDcI9GOzIM7wHAc+KHD2QZUzDXQJafY2IP9/AwPD6QDeSsK2PXsIuGjBFkLNpzGLUgCffY8A4FKwQa0aGRiUYDL4nfxvbcKXKNpl5LHeW2PpRtE77ugp3nGGHtRDvhHnve24vDG/wtX0rglcXfPnn9tWjywyGqaOqnGKBDghm+nrH1JusC9omu1O6BHXM70U64R433fB/e0eD9gBcefyfXZBFsFPVS4gikdf47oEg0Hm3YVWon2gn3OOBdGzwkGgE8ZHgX8eDytwvmhSTjKP5h4KbOo7tm3YgxZo65tJhoJ9xjzXthjYd3TPCQaGSEl8Aj8Rp5ZB6xV5IH8MEstu1yg/WJBuwB1o5rqUQ74R5F3lthniA70ODHOw6vib/87mvz3tbMK/LNe/zBtxm7XLHuC7vH2rOB9mSinXCPpmC9yZqPVAZvAi8sHojnqWYHWyNtHmVQjuIP3b2G7RCoO6y7YLetvTgzRKtLhHv0Bad7eBqSfsBrj/+Sswwuj9HGI3xgwg52BlBH1m3YvTlGLC7R6RyEe/TVmAoFa02xX6IB4C3iucm/ytgb6PO3CuoN8UNg6m8w9uoERF2w3gHsNVCkptJUGOEeA+1tgADvCTRe4LXHF7EzItj4a9KEM6xIZhiDdQG7D+0tENsbaL6dcI9NwVoGAd4baJxII4mXHn9DWtFd6PMTJ345yS1+CB7ZwdImmqyHg704B2J7GRWphHusBBcHZqdqgoCXFi+JF8iLZOOnG275mGcZgXqHrBfXnGJ0mV/CPbYqhwAfaisOBF4TL5HX0PuJZxlEXbIeBvbiNrD2VDp1iXCPbaBpDTT44tHS4mWqEchL6B3y9b1rLitkaQ7qgnV/2IW1t1KQIdxj3pFMDUrwwuK1xyPyH3+sqLc0fvz4Vxn7GFFHWw9kXab2VOo/Eu7nQaOgYmWFLcXhiUeXTwvlAfS+ui6PnVKoh2G9uAUuFMbKaC8awv08GjxrrykOIl4j38ayrgtUiLVpWw9iXfTaqdlOuJ/PBA8zBSyUFwi8RP7Sb2WxHGn1pvBQDssC0sOgzmHPgxxDMzKE+3lu0cCQJMvKKQ6r0aPzWJFyepf4wSKWNzoc6hDas+Bd6qkhQ7ifb+FQQYfA14RC2aNBlxrCA5ksVFMcAeyUYwj3uEg0lQL4tLDUBlW0xYXeM0bcMUbAXkk5hnCPK+BD7dnFZ61M9+at9lR7e4hgJ9zjFHh2qu1scS8KY+5tuKpEsBPucQt8Vl6wWfs8khOY3LPbswh2wj2Oi1bs0jBWlOZLfHaWl+yakLU1iHpuWpF4rXoqUAn3eNXe5NQwxGd5c8splhWG9dRkGmon3OM60zSWCVRZVntbjacqbfNcBCzTsvs2mWEYK2ukFEO4x71GnZChhpt8e5vp8u3WnvMtIddlybJz2ovUV9afoNkYwj1hiFcez1ioMC9HWXhRvhXci5Tx5+QVhvSXtBLrhHuCpZrmo9rkEfr8vLTMzBb3lWJCbZlpefkG6NzWjzZThiHcExT5MuankO9RVkaoE+6J3q1prCxrYB2ooayykbowhHu3gb78RGVymc19Q1lZcuWJcgKdcO++dSw05xuOUjVKuPcQldPkOuFOIhHuJBLhTiIR7iQS4U4inR/cb6KfEolwJ5EIdxIpXvXdCHAvoB8Tqefgvp1+TKTuoZsiwZ1aM6TuoYJIcKfwTuqGWSYI99P0gyJ1vywThDvZO6lb6HRkuJO9k7qfuQfiTvZO6gbJ/XSkuJ+m5gwp0VWwPVLcaamJ1N2iTDjciXdSN4syYXEn3kndjPawuBPvpO5Fe3jctxdQvUpK0NzuR3sHuFN/hpSY1l7gz3MHuJPBk7qNtUeCOweeVpxIieTsgbBHhDuPNAU3kceTEgH1795UEI7kiHAnkbqHCHcS4U4iEe4kEuFOIhHuJBLhTiIR7iQS4U4iEe4kEuFOIhHuJBLhTiLcSSTCnUQi3Ekkwp1EItxJJMKdRCLcSSTCnUQi3Ekkwp1EItxJhDuJRLiTSIQ7iUS4k0iEO4lEuJNIhDuJRLiTSIQ7iUS4k0iEO4lwJ5F6gP5TgAEACE92QW8in0kAAAAASUVORK5CYII=;" vertex="1" parent="7">
                    <mxGeometry x="20" y="90" width="387.93" height="180" as="geometry"/>
                </mxCell>
                <mxCell id="10" value="&lt;h5 style=&quot;padding: 0px; line-height: 1; margin: 24px 0px 16px; text-align: start;&quot;&gt;&lt;font color=&quot;#000000&quot; face=&quot;Roboto, Helvetica, Arial, sans-serif&quot;&gt;&lt;span style=&quot;font-size: 20px; font-weight: 500; letter-spacing: 0.4px;&quot;&gt;Type ?r= [your number] into the url to calculate the volume&lt;/span&gt;&lt;/font&gt;&lt;/h5&gt;&lt;h5 style=&quot;padding: 0px; font-size: 20px; font-weight: 500; line-height: 1; letter-spacing: 0.02em; font-family: Roboto, Helvetica, Arial, sans-serif; margin: 24px 0px 16px; color: rgba(0, 0, 0, 0.87); text-align: start;&quot;&gt;Formula:&lt;/h5&gt;&lt;h5 style=&quot;padding: 0px; font-size: 20px; font-weight: 500; line-height: 1; letter-spacing: 0.02em; font-family: Roboto, Helvetica, Arial, sans-serif; margin: 24px 0px 16px; color: rgba(0, 0, 0, 0.87); text-align: start;&quot;&gt;4 / 3 x π x radius&lt;/h5&gt;&lt;div style=&quot;color: rgba(0, 0, 0, 0.87); font-family: Helvetica, Arial, sans-serif; font-size: 14px; text-align: start;&quot; id=&quot;dimension&quot;&gt;r = 2&lt;/div&gt;&lt;div style=&quot;color: rgba(0, 0, 0, 0.87); font-family: Helvetica, Arial, sans-serif; font-size: 14px; text-align: start;&quot; id=&quot;output&quot;&gt;Volume: 33.51 cm³&lt;/div&gt;" style="text;html=1;align=center;verticalAlign=middle;resizable=0;points=[];autosize=1;strokeColor=none;fillColor=none;fontSize=20;" vertex="1" parent="7">
                    <mxGeometry x="30" y="270" width="560" height="200" as="geometry"/>
                </mxCell>
            </root>
        </mxGraphModel>
    </diagram>
</mxfile>